<?xml version="1.0" encoding="UTF-8"?>
<svg version="1.1" viewBox="0 0 2500 2500" xmlns="http://www.w3.org/2000/svg">
 <g transform="translate(0 1447.6)">
  <path transform="translate(0 -1447.6)" d="m388.83 412.57c-30.385 0-54.846 24.461-54.846 54.846v970.86c0 30.385 24.461 54.846 54.846 54.846h830.81c-21.579 32.345-45.808 73.7-49.9 101.56h-99.135c-4.0182 0-7.2539 3.2338-7.2539 7.2519v39.522c0 4.0182 3.2357 7.2539 7.2539 7.2539h491.39c4.0181 0 7.2539-3.2357 7.2539-7.2539v-39.522c0-4.0181-3.2358-7.2519-7.2539-7.2519h-99.135c-4.0923-27.86-28.322-69.216-49.9-101.56h830.81c30.385 0 54.846-24.461 54.846-54.846v-970.86c0-30.385-24.461-54.846-54.846-54.846h-1854.9zm-10.641 58.609h1876.2v963.33h-1876.2v-963.33z" fill="#fff"/>
 </g>
</svg>
